inDegrees=no
num_controls=7
num_derivatives=13
num_iterations=84
num_multipliers=7
num_parameters=0
num_slacks=7
num_states=26
objective=5.614237
objective_accelerations=0.207840
objective_balance=0.061550
objective_effort=0.346901
objective_height=4.952073
objective_ligament=0.045873
solver_duration=725.094160
status=Solve_Succeeded
success=true
DataType=double
version=3
OpenSimVersion=4.4-2022-07-23-0e9fedc
endheader
time	/jointset/ground_pelvis/pelvis_tilt/value	/jointset/ground_pelvis/pelvis_tx/value	/jointset/ground_pelvis/pelvis_ty/value	/jointset/hip_r/hip_flexion_r/value	/jointset/hip_r/hip_adduction_r/value	/jointset/hip_r/hip_rotation_r/value	/jointset/back/lumbar_extension/value	/jointset/patellofemoral_r/patellar_flexion_r/value	/jointset/knee_r/knee_flexion_r/value	/jointset/knee_r/knee_adduction_r/value	/jointset/knee_r/knee_rotation_r/value	/jointset/ankle_r/ankle_angle_r/value	/jointset/subtalar_r/subtalar_angle_r/value	/jointset/ground_pelvis/pelvis_tilt/speed	/jointset/ground_pelvis/pelvis_tx/speed	/jointset/ground_pelvis/pelvis_ty/speed	/jointset/hip_r/hip_flexion_r/speed	/jointset/hip_r/hip_adduction_r/speed	/jointset/hip_r/hip_rotation_r/speed	/jointset/back/lumbar_extension/speed	/jointset/patellofemoral_r/patellar_flexion_r/speed	/jointset/knee_r/knee_flexion_r/speed	/jointset/knee_r/knee_adduction_r/speed	/jointset/knee_r/knee_rotation_r/speed	/jointset/ankle_r/ankle_angle_r/speed	/jointset/subtalar_r/subtalar_angle_r/speed	/forceset/tau_hip_flexion_r	/forceset/tau_hip_adduction_r	/forceset/tau_hip_rotation_r	/forceset/tau_knee_flexion_r	/forceset/tau_ankle_angle_r	/forceset/tau_subtalar_angle_r	/forceset/tau_lumbar_extension	lambda_cid13_p0	lambda_cid14_p0	lambda_cid14_p1	lambda_cid14_p2	lambda_cid14_p3	lambda_cid14_p4	lambda_cid14_p5	/jointset/ground_pelvis/pelvis_tilt/accel	/jointset/ground_pelvis/pelvis_tx/accel	/jointset/ground_pelvis/pelvis_ty/accel	/jointset/hip_r/hip_flexion_r/accel	/jointset/hip_r/hip_adduction_r/accel	/jointset/hip_r/hip_rotation_r/accel	/jointset/back/lumbar_extension/accel	/jointset/patellofemoral_r/patellar_flexion_r/accel	/jointset/knee_r/knee_flexion_r/accel	/jointset/knee_r/knee_adduction_r/accel	/jointset/knee_r/knee_rotation_r/accel	/jointset/ankle_r/ankle_angle_r/accel	/jointset/subtalar_r/subtalar_angle_r/accel	gamma_cid13_p0	gamma_cid14_p0	gamma_cid14_p1	gamma_cid14_p2	gamma_cid14_p3	gamma_cid14_p4	gamma_cid14_p5
1	0.002024804567887388	0.1091477238229785	0.8422172084195639	0.6146678143135222	-0.2433417354776302	-0.09357337835649583	-0.4360295891280285	0.8722335085074557	0.87223350850685	0.04135133110741059	0.174323367456543	0.4363021476412085	0.0922714330541264	-0.004142426817615278	0.007952296316093722	0.01014647973835013	-0.03489449373227609	0.002894296727716688	-0.01367431605874656	0.02536847473657331	-0.04857064181297356	-0.0485706418129843	-0.002465792060579711	-0.0003250074232081788	-0.01065935553747419	0.001327824152069554	-0.07756438151151895	0.02899203129491966	0.01422983949612326	-0.3799117004902285	-0.1006284449454094	-9.036212142223995e-05	0.1643385501908727	-20.71073292975888	-77.6109423652745	-12.43832965011685	1.083678946971087	20.20832319794518	-742.0733468492525	50.96384588598524	0.1536082452710358	-0.02506943429979772	0.6920504991668165	-2.056796304924259	0.1040693020787201	-0.5477971833843099	1.070878726011954	-3.274557706966153	-3.274557706966252	0.307595662694273	-0.02136516479728095	-1.527531604808594	-0.3742167055617577	-3.056591021424036e-10	-4.334783932549056e-09	-1.392832856232266e-08	-3.59009590776485e-09	5.424002096457642e-09	-5.376416211937955e-09	-1.074931968687717e-08
1.01	0.001990254069859778	0.1092260290811212	0.8423531443375982	0.6142170059229867	-0.2433076525662841	-0.09373814339910522	-0.4357211180996626	0.8715843147088043	0.8715843147084673	0.04134169200190445	0.174319654676796	0.4361192249725566	0.09226592217612153	-0.002795597640064934	0.00771381073675395	0.01703948778599363	-0.055252174449837	0.003921198508447528	-0.01928092722289488	0.03639412168455306	-0.08128464007561112	-0.08128464007561242	0.0005446255867948825	-0.0004146333858876604	-0.02593018639136254	-0.002433251133305361	-0.07780634973746353	0.02898256988886718	0.01421003093651452	-0.3793485987224198	-0.1011790331448936	1.76430219475678e-05	0.1645630546809993	-20.75303957929314	-77.78393888325223	-12.39813566734402	1.050339227729172	20.27501936324532	-742.1502573799294	51.01882371680307	0.1210313573485337	-0.02247853817154913	0.6877417232065025	-2.023002873342414	0.1018352720486761	-0.5674282485436544	1.12866628315857	-3.272299196517871	-3.272299196513623	0.2987603272722538	-0.002326437188172283	-1.527610072663654	-0.3775447607399032	-4.886731253756416e-11	-5.177589370480988e-09	-2.152912724047552e-08	-6.917250552605025e-09	6.254571437921463e-09	-9.067695737884102e-09	-1.44847251108186e-08
1.02	0.00196833408446432	0.1093021013997973	0.8425579734892236	0.613563070941852	-0.2432633337049028	-0.09395904158717794	-0.4353003388809133	0.8706074852654205	0.8706074852652769	0.04136235617585319	0.1743151326122905	0.4357834437454984	0.09222270218128026	-0.001616324328435531	0.007505708422788469	0.02392512645643453	-0.0755198118941765	0.004941486527838974	-0.0249009450113735	0.04783011279084486	-0.1140977707624491	-0.1140977707624409	0.003594863694401405	-0.0004868643558953624	-0.04123106712455503	-0.006213999247251773	-0.07804831796365491	0.02897310848293328	0.01419022237636295	-0.3787854969548765	-0.1017296213444528	0.0001256481654952544	0.1647875591709329	-20.81679040116363	-77.96755015126318	-12.35480956590576	1.010799996671887	20.35670113317489	-742.4024439353145	51.09278708975005	0.1200970720831282	-0.01899278121946703	0.6905766237259239	-2.038787650282831	0.1027465498102635	-0.5504785082505633	1.152947557671969	-3.294384191804775	-3.294384191804862	0.3155597547411117	-0.0178861662624866	-1.533541580661317	-0.3781512712740887	8.924443545651214e-11	-6.556512180379909e-09	-3.172581142671327e-08	-9.361784524660915e-09	8.347839816231481e-09	-1.167063375829322e-08	-2.165363340329573e-08
1.03	0.001957394482924153	0.1093762552733283	0.842831586846398	0.6127069237092854	-0.2432088452516024	-0.09423620955512607	-0.4347631640183452	0.8693021160165951	0.8693021160164978	0.04141370309503374	0.1743099742201376	0.4352945575805282	0.09214160704262769	-0.0005980201350342812	0.007331233676072294	0.03079271495056423	-0.09569228346789724	0.005954722350168125	-0.03053372747191644	0.05967306101418708	-0.146984077204788	-0.1469840772047811	0.006681070812330724	-0.0005423798369862779	-0.05654604029435977	-0.0100059800955646	-0.07816432873822508	0.02889368061348326	0.01415061823572656	-0.3780430461709066	-0.1020729145102588	0.0002033552406395598	0.1648751154798262	-20.90200716348474	-78.0663424873355	-12.30723289989631	0.9676610534873565	20.39165624318608	-742.3268988134827	51.14802595280375	0.08873321615765831	-0.01574759543535778	0.684122589029071	-2.003874876705095	0.1003855566862861	-0.569839664580606	1.21019864246859	-3.286953643525373	-3.286953643523186	0.306128571312951	0.0009765202596107511	-1.530456086411427	-0.3798721271699396	2.261451626178249e-10	-7.94090557570707e-09	-4.194898424058455e-08	-1.179731216332104e-08	1.045399287859096e-08	-1.426246625313564e-08	-2.885757743932937e-08
